# Blender 5.0.0
# www.blender.org
mtllib BreakableWall.mtl
o BreakableWall
v 4.350404 3.300000 0.883354
v 4.350404 3.300000 -0.616646
v 4.350404 -3.000000 0.883354
v 4.350404 -3.000000 -0.616646
v -4.649596 3.300000 -0.616646
v -4.649596 3.300000 0.883354
v -4.649596 -3.000000 -0.616646
v -4.649596 -3.000000 0.883354
v 4.650404 3.600000 -0.616646
v 4.650404 3.600000 -1.816646
v 4.650404 -3.300000 -0.616646
v 4.650404 -3.300000 -1.816646
v -4.949596 3.600000 -1.816646
v -4.949596 3.600000 -0.616646
v -4.949596 -3.300000 -1.816646
v -4.949596 -3.300000 -0.616646
v 4.650404 3.600000 2.083354
v 4.650404 3.600000 0.883354
v 4.650404 -3.300000 2.083354
v 4.650404 -3.300000 0.883354
v -4.949596 3.600000 0.883354
v -4.949596 3.600000 2.083354
v -4.949596 -3.300000 0.883354
v -4.949596 -3.300000 2.083354
v 0.750404 -0.750000 0.883354
v 0.750404 -3.300000 0.883354
v 0.750404 -3.300000 -0.616646
v 0.750404 -0.750000 -0.616646
v -1.049596 -0.750000 -0.616646
v -1.049596 -3.300000 -0.616646
v -1.049596 -3.300000 0.883354
v -1.049596 -0.750000 0.883354
v 4.650404 -0.750000 0.883354
v 4.650404 -0.750000 -0.616646
v -4.949596 -0.750000 0.883354
v -4.949596 -0.750000 -0.616646
v 0.750404 3.600000 0.883354
v 0.750404 1.050000 0.883354
v 0.750404 1.050000 -0.616646
v 0.750404 3.600000 -0.616646
v -1.049596 3.600000 -0.616646
v -1.049596 1.050000 -0.616646
v -1.049596 1.050000 0.883354
v -1.049596 3.600000 0.883354
v 4.650404 1.050000 -0.616646
v 4.650404 1.050000 0.883354
v -4.949596 1.050000 -0.616646
v -4.949596 1.050000 0.883354
vn 1.0000 -0.0000 -0.0000
vn -1.0000 -0.0000 -0.0000
vn -0.0000 1.0000 -0.0000
vn -0.0000 -1.0000 -0.0000
vn -0.0000 -0.0000 1.0000
vn -0.0000 -0.0000 -1.0000
vt 1.000000 1.000000
vt 0.000000 1.000000
vt 0.801967 0.842993
vt 0.230223 0.820207
vt 0.769777 0.179793
vt 0.198033 0.157007
vt 1.000000 0.000000
vt 0.000000 0.000000
vt 0.500000 1.000000
vt 1.000000 0.000000
vt 0.500000 0.000000
vt 0.500000 1.000000
vt 0.000000 1.000000
vt 0.500000 0.000000
vt 0.000000 0.000000
vt 0.000000 0.632184
vt 0.000000 0.367816
vt 0.500000 0.632184
vt 0.500000 0.367816
vt 0.500000 0.000000
vt 0.500000 1.000000
vt 0.000000 1.000000
vt 0.500000 0.000000
vt 0.125085 0.000085
vt 0.843713 0.000085
vt 0.125085 0.999915
vt 0.843713 0.999915
vt 1.000000 0.884420
vt 0.862530 0.795862
vt 0.177071 0.841835
vt 0.822929 0.158165
vt 0.137470 0.204138
vt 0.000000 0.115580
vt 1.000000 0.367816
vt 0.500000 0.367816
vt 1.000000 0.000000
vt 0.500000 0.000000
vt 0.843713 0.999915
vt 0.125085 0.999915
vt 0.843713 0.000085
vt 0.125085 0.000085
s 0
usemtl BreakableWallInsideMat
f 1/1/1 3/2/1 2/3/1
f 3/2/1 4/4/1 2/3/1
f 5/5/2 7/6/2 6/7/2
f 7/6/2 8/8/2 6/7/2
f 5/5/3 6/7/3 2/3/3
f 6/7/3 1/1/3 2/3/3
f 8/8/4 7/6/4 3/2/4
f 7/6/4 4/4/4 3/2/4
f 6/1/5 8/9/5 1/10/5
f 8/9/5 3/11/5 1/10/5
f 2/12/6 4/13/6 5/14/6
f 4/13/6 7/15/6 5/14/6
usemtl BreakableWallOutside
f 9/16/1 11/17/1 10/18/1
f 11/17/1 12/19/1 10/18/1
f 13/20/2 15/20/2 14/8/2
f 15/20/2 16/8/2 14/8/2
f 13/21/3 14/22/3 10/18/3
f 14/22/3 9/16/3 10/18/3
f 16/8/4 15/23/4 11/17/4
f 15/23/4 12/19/4 11/17/4
f 14/8/5 16/7/5 9/2/5
f 16/7/5 11/1/5 9/2/5
f 10/24/6 12/25/6 13/26/6
f 12/25/6 15/27/6 13/26/6
f 17/28/1 19/2/1 18/29/1
f 19/2/1 20/30/1 18/29/1
f 21/31/2 23/32/2 22/7/2
f 23/32/2 24/33/2 22/7/2
f 21/31/3 22/7/3 18/29/3
f 22/7/3 17/28/3 18/29/3
f 24/34/4 23/35/4 19/36/4
f 23/35/4 20/37/4 19/36/4
f 22/38/5 24/39/5 17/40/5
f 24/39/5 19/41/5 17/40/5
f 18/8/6 20/8/6 21/8/6
f 20/8/6 23/8/6 21/8/6
usemtl color_14541540.001
f 25/8/1 26/8/1 27/8/1
f 25/8/1 27/8/1 28/8/1
f 29/8/2 30/8/2 31/8/2
f 29/8/2 31/8/2 32/8/2
f 26/8/4 31/8/4 30/8/4
f 26/8/4 30/8/4 27/8/4
f 25/8/5 32/8/5 31/8/5
f 25/8/5 31/8/5 26/8/5
f 29/8/6 28/8/6 27/8/6
f 29/8/6 27/8/6 30/8/6
f 33/8/4 25/8/4 28/8/4
f 33/8/4 28/8/4 34/8/4
f 32/8/4 35/8/4 36/8/4
f 32/8/4 36/8/4 29/8/4
f 37/8/1 38/8/1 39/8/1
f 37/8/1 39/8/1 40/8/1
f 41/8/2 42/8/2 43/8/2
f 41/8/2 43/8/2 44/8/2
f 40/8/3 41/8/3 44/8/3
f 40/8/3 44/8/3 37/8/3
f 44/8/5 43/8/5 38/8/5
f 44/8/5 38/8/5 37/8/5
f 40/8/6 39/8/6 42/8/6
f 40/8/6 42/8/6 41/8/6
f 45/8/3 39/8/3 38/8/3
f 45/8/3 38/8/3 46/8/3
f 42/8/3 47/8/3 48/8/3
f 42/8/3 48/8/3 43/8/3
f 46/8/1 33/8/1 34/8/1
f 46/8/1 34/8/1 45/8/1
f 47/8/2 36/8/2 35/8/2
f 47/8/2 35/8/2 48/8/2
f 47/8/6 42/8/6 29/8/6
f 36/8/6 47/8/6 29/8/6
f 28/8/6 29/8/6 42/8/6
f 42/8/6 39/8/6 28/8/6
f 34/8/6 28/8/6 39/8/6
f 34/8/6 39/8/6 45/8/6
f 35/8/5 32/8/5 43/8/5
f 48/8/5 35/8/5 43/8/5
f 38/8/5 43/8/5 32/8/5
f 32/8/5 25/8/5 38/8/5
f 46/8/5 38/8/5 25/8/5
f 46/8/5 25/8/5 33/8/5
