# Blender 5.0.0
# www.blender.org
mtllib Chip.mtl
o Chip
v 2.104964 0.047132 2.727287
v 2.104964 -0.089998 2.727287
v 2.104964 -0.089999 -3.841153
v 2.104964 0.047131 -3.841153
v -2.164515 0.047132 -1.870603
v -2.164515 -0.089998 -1.870603
v -2.164515 -0.089998 2.727287
v -2.164515 0.047132 2.727287
v -0.850816 0.047132 -1.870603
v -0.850816 -0.089998 -1.870603
v -0.850816 0.047131 -3.841153
v -0.850816 -0.089999 -3.841153
v 1.920225 0.107132 2.443067
v 1.920225 -0.064288 2.443067
v 1.920225 -0.064289 -3.556934
v 1.920225 0.107131 -3.556934
v -1.979776 0.107132 -1.756934
v -1.979776 -0.064288 -1.756934
v -1.979776 -0.064288 2.443067
v -1.979776 0.107132 2.443067
v -0.779776 0.107132 -1.756934
v -0.779776 -0.064288 -1.756934
v -0.779776 0.107131 -3.556934
v -0.779776 -0.064289 -3.556934
v 1.620225 0.150002 0.043066
v 1.620225 0.150001 -3.256934
v 1.620225 0.021422 0.043066
v 1.620225 0.021421 -3.256934
v 1.020225 0.150001 -3.256934
v 1.020225 0.150002 0.043066
v 1.020225 0.021421 -3.256934
v 1.020225 0.021422 0.043066
v 0.720224 0.150002 0.043066
v 0.720224 0.150001 -3.256934
v 0.720224 0.021422 0.043066
v 0.720224 0.021421 -3.256934
v 0.120224 0.150001 -3.256934
v 0.120224 0.150002 0.043066
v 0.120224 0.021421 -3.256934
v 0.120224 0.021422 0.043066
v 1.620225 0.150002 2.143066
v 1.620225 0.150002 0.343066
v 1.620225 0.021422 2.143066
v 1.620225 0.021422 0.343066
v -1.679776 0.150002 0.343066
v -1.679776 0.150002 2.143066
v -1.679776 0.021422 0.343066
v -1.679776 0.021422 2.143066
vn 1.0000 -0.0000 -0.0000
vn -1.0000 -0.0000 -0.0000
vn -0.0000 1.0000 -0.0000
vn -0.0000 -1.0000 -0.0000
vn -0.0000 -0.0000 -1.0000
vn -0.0000 -0.0000 1.0000
s 0
usemtl color_16768282.009
f 1//1 2//1 3//1
f 1//1 3//1 4//1
f 5//2 6//2 7//2
f 5//2 7//2 8//2
f 9//3 5//3 8//3
f 7//4 6//4 10//4
f 9//5 10//5 6//5
f 9//5 6//5 5//5
f 11//2 12//2 10//2
f 11//2 10//2 9//2
f 2//6 1//6 7//6
f 8//6 7//6 1//6
f 4//5 3//5 12//5
f 4//5 12//5 11//5
f 4//3 11//3 9//3
f 8//3 1//3 9//3
f 4//3 9//3 1//3
f 2//4 7//4 10//4
f 12//4 3//4 10//4
f 2//4 10//4 3//4
usemtl color_1650274.009
f 13//1 14//1 15//1
f 13//1 15//1 16//1
f 17//2 18//2 19//2
f 17//2 19//2 20//2
f 21//3 17//3 20//3
f 19//4 18//4 22//4
f 21//5 22//5 18//5
f 21//5 18//5 17//5
f 23//2 24//2 22//2
f 23//2 22//2 21//2
f 14//6 13//6 19//6
f 20//6 19//6 13//6
f 16//5 15//5 24//5
f 16//5 24//5 23//5
f 16//3 23//3 21//3
f 20//3 13//3 21//3
f 16//3 21//3 13//3
f 14//4 19//4 22//4
f 24//4 15//4 22//4
f 14//4 22//4 15//4
usemtl color_12568524.003
f 25//1 27//1 26//1
f 27//1 28//1 26//1
f 29//2 31//2 30//2
f 31//2 32//2 30//2
f 29//3 30//3 26//3
f 30//3 25//3 26//3
f 32//4 31//4 27//4
f 31//4 28//4 27//4
f 30//6 32//6 25//6
f 32//6 27//6 25//6
f 26//5 28//5 29//5
f 28//5 31//5 29//5
f 33//1 35//1 34//1
f 35//1 36//1 34//1
f 37//2 39//2 38//2
f 39//2 40//2 38//2
f 37//3 38//3 34//3
f 38//3 33//3 34//3
f 40//4 39//4 35//4
f 39//4 36//4 35//4
f 38//6 40//6 33//6
f 40//6 35//6 33//6
f 34//5 36//5 37//5
f 36//5 39//5 37//5
f 41//1 43//1 42//1
f 43//1 44//1 42//1
f 45//2 47//2 46//2
f 47//2 48//2 46//2
f 45//3 46//3 42//3
f 46//3 41//3 42//3
f 48//4 47//4 43//4
f 47//4 44//4 43//4
f 46//6 48//6 41//6
f 48//6 43//6 41//6
f 42//5 44//5 45//5
f 44//5 47//5 45//5
