# Blender 5.0.0
# www.blender.org
mtllib FloppyDisk.mtl
o FloppyDisk
v -3.300000 0.090000 3.300000
v 3.300000 0.090000 -3.300000
v 3.300000 0.210000 -3.300000
v -3.300000 0.210000 -2.356200
v -3.300000 0.090000 -2.356200
v -2.356200 0.090000 -3.300000
v -2.356200 0.210000 -3.300000
v -3.300000 0.210000 3.300000
v 3.300000 0.210000 3.300000
v 3.300000 0.090000 3.300000
v 0.117480 0.390000 0.877740
v 0.000000 0.390000 0.885450
v 0.000000 0.390000 -0.014550
v 0.232950 0.390000 0.854760
v 0.344430 0.390000 0.816930
v 0.450000 0.390000 0.764850
v 0.547890 0.390000 0.699450
v 0.636390 0.390000 0.621840
v 0.714030 0.390000 0.533340
v 0.779430 0.390000 0.435450
v 0.831480 0.390000 0.329850
v 0.869340 0.390000 0.218370
v 0.892290 0.390000 0.102900
v 0.900000 0.390000 -0.014550
v 0.892290 0.390000 -0.132030
v 0.869340 0.390000 -0.247500
v 0.831480 0.390000 -0.358980
v 0.779430 0.390000 -0.464550
v 0.714030 0.390000 -0.562440
v 0.636390 0.390000 -0.650970
v 0.547890 0.390000 -0.728580
v 0.450000 0.390000 -0.793980
v 0.344430 0.390000 -0.846060
v 0.232950 0.390000 -0.883890
v 0.117480 0.390000 -0.906870
v 0.000000 0.390000 -0.914550
v -0.117480 0.390000 -0.906870
v -0.232950 0.390000 -0.883890
v -0.344430 0.390000 -0.846060
v -0.450000 0.390000 -0.793980
v -0.547890 0.390000 -0.728580
v -0.636390 0.390000 -0.650970
v -0.714030 0.390000 -0.562440
v -0.779430 0.390000 -0.464550
v -0.831480 0.390000 -0.358980
v -0.869340 0.390000 -0.247500
v -0.892290 0.390000 -0.132030
v -0.900000 0.390000 -0.014550
v -0.892290 0.390000 0.102900
v -0.869340 0.390000 0.218370
v -0.831480 0.390000 0.329850
v -0.779430 0.390000 0.435450
v -0.714030 0.390000 0.533340
v -0.636390 0.390000 0.621840
v -0.547890 0.390000 0.699450
v -0.450000 0.390000 0.764850
v -0.344430 0.390000 0.816930
v -0.232950 0.390000 0.854760
v -0.117480 0.390000 0.877740
v 0.000000 0.300000 0.885450
v 0.117480 0.300000 0.877740
v 0.000000 0.300000 -0.014550
v 0.232950 0.300000 0.854760
v 0.344430 0.300000 0.816930
v 0.450000 0.300000 0.764850
v 0.547890 0.300000 0.699450
v 0.636390 0.300000 0.621840
v 0.714030 0.300000 0.533340
v 0.779430 0.300000 0.435450
v 0.831480 0.300000 0.329850
v 0.869340 0.300000 0.218370
v 0.892290 0.300000 0.102900
v 0.900000 0.300000 -0.014550
v 0.892290 0.300000 -0.132030
v 0.869340 0.300000 -0.247500
v 0.831480 0.300000 -0.358980
v 0.779430 0.300000 -0.464550
v 0.714030 0.300000 -0.562440
v 0.636390 0.300000 -0.650970
v 0.547890 0.300000 -0.728580
v 0.450000 0.300000 -0.793980
v 0.344430 0.300000 -0.846060
v 0.232950 0.300000 -0.883890
v 0.117480 0.300000 -0.906870
v 0.000000 0.300000 -0.914550
v -0.117480 0.300000 -0.906870
v -0.232950 0.300000 -0.883890
v -0.344430 0.300000 -0.846060
v -0.450000 0.300000 -0.793980
v -0.547890 0.300000 -0.728580
v -0.636390 0.300000 -0.650970
v -0.714030 0.300000 -0.562440
v -0.779430 0.300000 -0.464550
v -0.831480 0.300000 -0.358980
v -0.869340 0.300000 -0.247500
v -0.892290 0.300000 -0.132030
v -0.900000 0.300000 -0.014550
v -0.892290 0.300000 0.102900
v -0.869340 0.300000 0.218370
v -0.831480 0.300000 0.329850
v -0.779430 0.300000 0.435450
v -0.714030 0.300000 0.533340
v -0.636390 0.300000 0.621840
v -0.547890 0.300000 0.699450
v -0.450000 0.300000 0.764850
v -0.344430 0.300000 0.816930
v -0.232950 0.300000 0.854760
v -0.117480 0.300000 0.877740
v -1.800000 0.360000 2.100000
v -1.800000 0.360000 -0.000000
v -1.800000 -0.060000 2.100000
v -1.800000 -0.060000 0.000000
v -3.060000 0.360000 -0.000000
v -3.060000 0.360000 2.100000
v -3.060000 -0.060000 0.000000
v -3.060000 -0.060000 2.100000
v -1.800000 0.360000 -0.450000
v -1.800000 0.360000 -1.170000
v -1.800000 -0.060000 -0.450000
v -1.800000 -0.060000 -1.170000
v -3.060000 0.360000 -1.170000
v -3.060000 0.360000 -0.450000
v -3.060000 -0.060000 -1.170000
v -3.060000 -0.060000 -0.450000
v -3.000000 0.300000 3.000000
v 3.000000 0.300000 -3.000000
v 3.000000 -0.000000 -3.000000
v -3.000000 -0.000000 -2.142000
v -3.000000 0.300000 -2.142000
v -2.142000 0.300000 -3.000000
v -2.142000 -0.000000 -3.000000
v 3.000000 0.300000 3.000000
v 3.000000 0.000000 3.000000
v -3.000000 0.000000 3.000000
vn -0.7071 -0.0000 -0.7071
vn -0.0000 -0.0000 -1.0000
vn 1.0000 -0.0000 -0.0000
vn -0.0000 1.0000 -0.0000
vn -1.0000 -0.0000 -0.0000
vn -0.0000 -1.0000 -0.0000
vn -0.0000 -0.0000 1.0000
vn -0.0655 -0.0000 0.9979
vn -0.1952 -0.0000 0.9808
vn -0.3213 -0.0000 0.9470
vn -0.4424 -0.0000 0.8968
vn -0.5555 -0.0000 0.8315
vn -0.6593 -0.0000 0.7518
vn -0.7517 -0.0000 0.6595
vn -0.8315 -0.0000 0.5555
vn -0.8970 -0.0000 0.4421
vn -0.9469 -0.0000 0.3216
vn -0.9808 -0.0000 0.1949
vn -0.9979 -0.0000 0.0655
vn -0.9979 -0.0000 -0.0655
vn -0.9808 -0.0000 -0.1949
vn -0.9469 -0.0000 -0.3216
vn -0.8969 -0.0000 -0.4422
vn -0.8315 -0.0000 -0.5555
vn -0.7518 -0.0000 -0.6594
vn -0.6593 -0.0000 -0.7519
vn -0.6593 -0.0000 -0.7518
vn -0.5555 -0.0000 -0.8315
vn -0.4424 -0.0000 -0.8968
vn -0.3213 -0.0000 -0.9470
vn -0.1952 -0.0000 -0.9808
vn -0.0652 -0.0000 -0.9979
vn 0.0655 -0.0000 0.9979
vn 0.1952 -0.0000 0.9808
vn 0.3213 -0.0000 0.9470
vn 0.4424 -0.0000 0.8968
vn 0.5555 -0.0000 0.8315
vn 0.6593 -0.0000 0.7518
vn 0.7517 -0.0000 0.6595
vn 0.8315 -0.0000 0.5555
vn 0.8970 -0.0000 0.4421
vn 0.9469 -0.0000 0.3216
vn 0.9808 -0.0000 0.1949
vn 0.9979 -0.0000 0.0655
vn 0.9979 -0.0000 -0.0655
vn 0.9808 -0.0000 -0.1949
vn 0.9469 -0.0000 -0.3216
vn 0.8969 -0.0000 -0.4422
vn 0.8315 -0.0000 -0.5555
vn 0.7518 -0.0000 -0.6594
vn 0.6593 -0.0000 -0.7518
vn 0.5555 -0.0000 -0.8315
vn 0.4424 -0.0000 -0.8968
vn 0.3213 -0.0000 -0.9470
vn 0.1952 -0.0000 -0.9808
vn 0.0652 -0.0000 -0.9979
vt 0.000000 0.000000
vt 0.166667 0.166667
vt -0.000000 0.333333
vt 0.166667 0.000000
vt 0.333333 0.166667
vt 0.166667 0.333333
vt 0.333333 0.000000
vt 0.500000 0.166667
vt 0.333333 0.333333
vt -0.000000 0.333333
vt 0.166667 0.500000
vt -0.000000 0.666667
vt 0.500000 0.000000
vt 0.666667 0.166667
vt 0.500000 0.333333
vt 0.166667 0.333333
vt 0.333333 0.500000
vt 0.166667 0.666667
vt 0.333333 0.333333
vt 0.500000 0.500000
vt 0.333333 0.666667
vt 0.500000 0.333333
vt 0.666667 0.500000
vt 0.500000 0.666667
vt 0.666667 0.000000
vt 0.833333 0.166667
vt 0.666667 0.333333
vt 0.666667 0.333333
vt 0.833333 0.500000
vt 0.666667 0.666667
vt 0.833333 0.000000
vt 1.000000 0.166667
vt 0.833333 0.333333
vt 0.166667 0.833333
vt -0.000000 1.000000
vt 0.166667 0.666667
vt 0.333333 0.833333
vt 0.166667 1.000000
vt 0.500000 0.833333
vt 0.333333 1.000000
vt 0.833333 0.333333
vt 1.000000 0.500000
vt 0.833333 0.666667
vt 0.666667 0.833333
vt 0.500000 1.000000
vt 0.211901 0.000000
vt 0.241632 0.000000
vt 0.226785 0.230500
vt 0.271108 0.003945
vt 0.299825 0.011760
vt 0.327288 0.023323
vt 0.353036 0.038428
vt 0.376620 0.056817
vt 0.397648 0.078178
vt 0.415746 0.102149
vt 0.430608 0.128320
vt 0.441992 0.156235
vt 0.449685 0.185422
vt 0.453570 0.215373
vt 0.453570 0.245591
vt 0.449696 0.275550
vt 0.442000 0.304737
vt 0.430630 0.332650
vt 0.415769 0.358820
vt 0.397669 0.382798
vt 0.376652 0.404163
vt 0.353067 0.422558
vt 0.327326 0.437671
vt 0.299861 0.449233
vt 0.271144 0.457059
vt 0.241668 0.461001
vt 0.211938 0.461009
vt 0.182462 0.457064
vt 0.153745 0.449249
vt 0.126282 0.437685
vt 0.100534 0.422581
vt 0.076950 0.404192
vt 0.055922 0.382823
vt 0.037823 0.358852
vt 0.022962 0.332689
vt 0.011578 0.304774
vt 0.003886 0.275586
vt 0.000000 0.245628
vt 0.000000 0.215418
vt 0.003874 0.185459
vt 0.011570 0.156271
vt 0.022940 0.128351
vt 0.037801 0.102181
vt 0.055901 0.078210
vt 0.076918 0.056846
vt 0.100503 0.038451
vt 0.126244 0.023338
vt 0.153709 0.011776
vt 0.182426 0.003949
vt 0.635996 0.003949
vt 0.665471 0.000000
vt 0.680355 0.230500
vt 0.607279 0.011776
vt 0.579814 0.023338
vt 0.554073 0.038451
vt 0.530488 0.056846
vt 0.509471 0.078210
vt 0.491370 0.102181
vt 0.476510 0.128351
vt 0.465140 0.156271
vt 0.457444 0.185459
vt 0.453570 0.215418
vt 0.453570 0.245628
vt 0.457455 0.275586
vt 0.465148 0.304774
vt 0.476532 0.332689
vt 0.491393 0.358852
vt 0.509492 0.382823
vt 0.530520 0.404192
vt 0.554104 0.422581
vt 0.579852 0.437685
vt 0.607315 0.449249
vt 0.636032 0.457064
vt 0.665508 0.461009
vt 0.695238 0.461001
vt 0.724714 0.457059
vt 0.753430 0.449233
vt 0.780896 0.437671
vt 0.806637 0.422558
vt 0.830222 0.404163
vt 0.851239 0.382798
vt 0.869339 0.358820
vt 0.884200 0.332650
vt 0.895569 0.304737
vt 0.903266 0.275550
vt 0.907139 0.245591
vt 0.907139 0.215373
vt 0.903254 0.185422
vt 0.895562 0.156235
vt 0.884178 0.128320
vt 0.869316 0.102149
vt 0.851217 0.078178
vt 0.830190 0.056817
vt 0.806606 0.038428
vt 0.780858 0.023323
vt 0.753395 0.011760
vt 0.724678 0.003945
vt 0.695202 0.000000
vt 0.000000 0.245628
vt 0.318182 0.461009
vt 0.318182 1.000000
vt 0.636364 1.000000
vt 0.636364 0.461009
vt 0.000000 1.000000
vt 0.000000 0.461009
vt 0.636364 0.461009
vt 0.818182 0.461009
vt 1.000000 0.461009
vt 0.818182 0.461009
vt 0.818182 0.784404
vt 0.636364 0.784404
vt 1.000000 0.784404
vt 0.428500 1.000000
vt 0.500000 0.857000
vt 0.500000 0.000000
vt 0.500000 1.000000
vt 1.000000 1.000000
vt 0.000000 1.000000
vt 0.000000 0.000000
vt 0.500000 0.000000
vt 0.928500 0.000000
vt 1.000000 0.143000
s 0
usemtl TreasureOutsideMat
f 5/1/1 4/2/1 6/3/1
f 6/4/1 4/5/1 7/6/1
f 6/7/2 7/8/2 3/9/2
f 3/10/2 2/11/2 6/12/2
f 9/13/3 2/14/3 3/15/3
f 8/16/4 9/17/4 4/18/4
f 4/19/4 9/20/4 7/21/4
f 9/22/4 3/23/4 7/24/4
f 4/25/5 1/26/5 8/27/5
f 10/28/6 1/29/6 5/30/6
f 5/31/6 6/32/6 10/33/6
f 6/12/6 2/34/6 10/35/6
f 4/36/5 5/37/5 1/38/5
f 9/21/3 10/39/3 2/40/3
f 8/41/7 1/42/7 9/43/7
f 9/24/7 1/44/7 10/45/7
usemtl TreasureAccentMat
f 12/46/4 11/47/4 13/48/4
f 11/47/4 14/49/4 13/48/4
f 14/49/4 15/50/4 13/48/4
f 15/50/4 16/51/4 13/48/4
f 16/51/4 17/52/4 13/48/4
f 17/52/4 18/53/4 13/48/4
f 18/53/4 19/54/4 13/48/4
f 19/54/4 20/55/4 13/48/4
f 20/55/4 21/56/4 13/48/4
f 21/56/4 22/57/4 13/48/4
f 22/57/4 23/58/4 13/48/4
f 23/58/4 24/59/4 13/48/4
f 24/59/4 25/60/4 13/48/4
f 25/60/4 26/61/4 13/48/4
f 26/61/4 27/62/4 13/48/4
f 27/62/4 28/63/4 13/48/4
f 28/63/4 29/64/4 13/48/4
f 29/64/4 30/65/4 13/48/4
f 30/65/4 31/66/4 13/48/4
f 31/66/4 32/67/4 13/48/4
f 32/67/4 33/68/4 13/48/4
f 33/68/4 34/69/4 13/48/4
f 34/69/4 35/70/4 13/48/4
f 35/70/4 36/71/4 13/48/4
f 36/71/4 37/72/4 13/48/4
f 37/72/4 38/73/4 13/48/4
f 38/73/4 39/74/4 13/48/4
f 39/74/4 40/75/4 13/48/4
f 40/75/4 41/76/4 13/48/4
f 41/76/4 42/77/4 13/48/4
f 42/77/4 43/78/4 13/48/4
f 43/78/4 44/79/4 13/48/4
f 44/79/4 45/80/4 13/48/4
f 45/80/4 46/81/4 13/48/4
f 46/81/4 47/82/4 13/48/4
f 47/82/4 48/83/4 13/48/4
f 48/83/4 49/84/4 13/48/4
f 49/84/4 50/85/4 13/48/4
f 50/85/4 51/86/4 13/48/4
f 51/86/4 52/87/4 13/48/4
f 52/87/4 53/88/4 13/48/4
f 53/88/4 54/89/4 13/48/4
f 54/89/4 55/90/4 13/48/4
f 55/90/4 56/91/4 13/48/4
f 56/91/4 57/92/4 13/48/4
f 57/92/4 58/93/4 13/48/4
f 58/93/4 59/94/4 13/48/4
f 59/94/4 12/46/4 13/48/4
f 61/95/6 60/96/6 62/97/6
f 63/98/6 61/95/6 62/97/6
f 64/99/6 63/98/6 62/97/6
f 65/100/6 64/99/6 62/97/6
f 66/101/6 65/100/6 62/97/6
f 67/102/6 66/101/6 62/97/6
f 68/103/6 67/102/6 62/97/6
f 69/104/6 68/103/6 62/97/6
f 70/105/6 69/104/6 62/97/6
f 71/106/6 70/105/6 62/97/6
f 72/107/6 71/106/6 62/97/6
f 73/108/6 72/107/6 62/97/6
f 74/109/6 73/108/6 62/97/6
f 75/110/6 74/109/6 62/97/6
f 76/111/6 75/110/6 62/97/6
f 77/112/6 76/111/6 62/97/6
f 78/113/6 77/112/6 62/97/6
f 79/114/6 78/113/6 62/97/6
f 80/115/6 79/114/6 62/97/6
f 81/116/6 80/115/6 62/97/6
f 82/117/6 81/116/6 62/97/6
f 83/118/6 82/117/6 62/97/6
f 84/119/6 83/118/6 62/97/6
f 85/120/6 84/119/6 62/97/6
f 86/121/6 85/120/6 62/97/6
f 87/122/6 86/121/6 62/97/6
f 88/123/6 87/122/6 62/97/6
f 89/124/6 88/123/6 62/97/6
f 90/125/6 89/124/6 62/97/6
f 91/126/6 90/125/6 62/97/6
f 92/127/6 91/126/6 62/97/6
f 93/128/6 92/127/6 62/97/6
f 94/129/6 93/128/6 62/97/6
f 95/130/6 94/129/6 62/97/6
f 96/131/6 95/130/6 62/97/6
f 97/132/6 96/131/6 62/97/6
f 98/133/6 97/132/6 62/97/6
f 99/134/6 98/133/6 62/97/6
f 100/135/6 99/134/6 62/97/6
f 101/136/6 100/135/6 62/97/6
f 102/137/6 101/136/6 62/97/6
f 103/138/6 102/137/6 62/97/6
f 104/139/6 103/138/6 62/97/6
f 105/140/6 104/139/6 62/97/6
f 106/141/6 105/140/6 62/97/6
f 107/142/6 106/141/6 62/97/6
f 108/143/6 107/142/6 62/97/6
f 60/96/6 108/143/6 62/97/6
f 60/96/8 59/143/8 108/143/8
f 12/96/8 59/143/8 60/96/8
f 108/143/9 58/142/9 107/142/9
f 59/143/9 58/142/9 108/143/9
f 107/142/10 57/141/10 106/141/10
f 58/142/10 57/141/10 107/142/10
f 106/141/11 56/140/11 105/140/11
f 57/141/11 56/140/11 106/141/11
f 105/140/12 55/139/12 104/139/12
f 56/140/12 55/139/12 105/140/12
f 104/139/13 54/138/13 103/138/13
f 55/139/13 54/138/13 104/139/13
f 103/138/14 53/137/14 102/137/14
f 54/138/14 53/137/14 103/138/14
f 102/88/15 52/87/15 101/87/15
f 53/137/15 52/136/15 102/137/15
f 101/87/16 51/86/16 100/86/16
f 52/87/16 51/86/16 101/87/16
f 100/135/17 50/134/17 99/134/17
f 51/86/17 50/85/17 100/86/17
f 99/134/18 49/133/18 98/133/18
f 50/134/18 49/133/18 99/134/18
f 98/84/19 48/83/19 97/144/19
f 49/133/19 48/132/19 98/133/19
f 97/144/20 47/82/20 96/82/20
f 48/83/20 47/82/20 97/144/20
f 96/82/21 46/81/21 95/81/21
f 47/82/21 46/81/21 96/82/21
f 95/130/22 45/129/22 94/129/22
f 46/81/22 45/80/22 95/81/22
f 94/129/23 44/128/23 93/128/23
f 45/129/23 44/128/23 94/129/23
f 93/79/24 43/78/24 92/78/24
f 44/128/24 43/127/24 93/128/24
f 92/78/25 42/77/25 91/77/25
f 43/78/25 42/77/25 92/78/25
f 91/77/26 41/76/26 90/76/26
f 42/77/27 41/76/27 91/77/27
f 90/76/28 40/75/28 89/75/28
f 41/76/28 40/75/28 90/76/28
f 89/75/29 39/74/29 88/74/29
f 40/75/29 39/74/29 89/75/29
f 88/74/30 38/73/30 87/73/30
f 39/74/30 38/73/30 88/74/30
f 87/73/31 37/72/31 86/72/31
f 38/73/31 37/72/31 87/73/31
f 86/72/32 36/71/32 85/71/32
f 37/72/32 36/71/32 86/72/32
f 11/95/33 12/96/33 61/95/33
f 61/95/33 12/96/33 60/96/33
f 14/98/34 11/95/34 63/98/34
f 63/98/34 11/95/34 61/95/34
f 15/99/35 14/98/35 64/99/35
f 64/99/35 14/98/35 63/98/35
f 16/100/36 15/99/36 65/100/36
f 65/100/36 15/99/36 64/99/36
f 17/101/37 16/100/37 66/101/37
f 66/101/37 16/100/37 65/100/37
f 18/102/38 17/101/38 67/102/38
f 67/102/38 17/101/38 66/101/38
f 19/103/39 18/102/39 68/103/39
f 68/103/39 18/102/39 67/102/39
f 20/55/40 19/54/40 69/55/40
f 69/104/40 19/103/40 68/103/40
f 21/56/41 20/55/41 70/56/41
f 70/56/41 20/55/41 69/55/41
f 22/106/42 21/105/42 71/106/42
f 71/57/42 21/56/42 70/56/42
f 23/107/43 22/106/43 72/107/43
f 72/107/43 22/106/43 71/106/43
f 24/108/44 23/107/44 73/108/44
f 73/108/44 23/107/44 72/107/44
f 25/60/45 24/59/45 74/60/45
f 74/109/45 24/108/45 73/108/45
f 26/61/46 25/60/46 75/61/46
f 75/61/46 25/60/46 74/60/46
f 27/111/47 26/110/47 76/111/47
f 76/62/47 26/61/47 75/61/47
f 28/112/48 27/111/48 77/112/48
f 77/112/48 27/111/48 76/111/48
f 29/64/49 28/63/49 78/64/49
f 78/113/49 28/112/49 77/112/49
f 30/65/50 29/64/50 79/65/50
f 79/65/50 29/64/50 78/64/50
f 31/66/51 30/65/51 80/66/51
f 80/66/51 30/65/51 79/65/51
f 32/67/52 31/66/52 81/67/52
f 81/67/52 31/66/52 80/66/52
f 33/68/53 32/67/53 82/68/53
f 82/68/53 32/67/53 81/67/53
f 34/69/54 33/68/54 83/69/54
f 83/69/54 33/68/54 82/68/54
f 35/70/55 34/69/55 84/70/55
f 84/70/55 34/69/55 83/69/55
f 36/71/56 35/70/56 85/71/56
f 85/71/56 35/70/56 84/70/56
f 109/145/3 111/145/3 110/146/3
f 111/145/3 112/146/3 110/146/3
f 113/147/5 115/147/5 114/148/5
f 115/147/5 116/148/5 114/148/5
f 113/149/4 114/150/4 110/146/4
f 114/150/4 109/145/4 110/146/4
f 116/148/6 115/147/6 111/145/6
f 115/147/6 112/146/6 111/145/6
f 114/148/7 116/148/7 109/145/7
f 116/148/7 111/145/7 109/145/7
f 110/146/2 112/146/2 113/147/2
f 112/146/2 115/147/2 113/147/2
f 117/151/3 119/151/3 118/152/3
f 119/151/3 120/152/3 118/152/3
f 121/153/5 123/153/5 122/154/5
f 123/153/5 124/154/5 122/154/5
f 121/155/4 122/156/4 118/152/4
f 122/156/4 117/151/4 118/152/4
f 124/154/6 123/153/6 119/155/6
f 123/153/6 120/157/6 119/155/6
f 122/156/7 124/156/7 117/151/7
f 124/156/7 119/151/7 117/151/7
f 118/152/2 120/152/2 121/155/2
f 120/152/2 123/155/2 121/155/2
usemtl TreasureMainMat
f 128/158/1 129/158/1 130/159/1
f 128/158/1 130/159/1 131/159/1
f 125/160/7 133/161/7 132/161/7
f 132/161/3 133/161/3 126/162/3
f 125/163/5 128/158/5 134/163/5
f 126/162/3 133/161/3 127/162/3
f 129/158/4 132/164/4 130/159/4
f 125/163/4 132/164/4 129/158/4
f 126/165/4 130/159/4 132/164/4
f 125/160/7 134/160/7 133/161/7
f 129/158/5 128/158/5 125/163/5
f 133/161/6 128/166/6 131/167/6
f 127/162/6 133/161/6 131/167/6
f 131/159/2 130/159/2 127/165/2
f 126/165/2 127/165/2 130/159/2
f 128/166/6 133/161/6 134/160/6
