# Blender 5.0.0
# www.blender.org
mtllib Monitor.mtl
o Monitor
v 1.775209 0.328901 1.722263
v 1.775209 0.328901 -1.877738
v 1.775209 -0.071119 1.722263
v 1.775209 -0.071119 -1.877738
v -1.824791 0.328901 -1.877738
v -1.824791 0.328901 1.722263
v -1.824791 -0.071119 -1.877738
v -1.824791 -0.071119 1.722263
v 1.175209 0.528881 1.122263
v 1.175209 0.528881 -1.277737
v 1.175209 0.328901 1.122263
v 1.175209 0.328901 -1.277737
v -1.224791 0.528881 -1.277737
v -1.224791 0.528881 1.122263
v -1.224791 0.328901 -1.277737
v -1.224791 0.328901 1.122263
v 1.475209 0.728891 1.422263
v 1.475209 -0.471109 1.422263
v 1.475209 -0.471109 -1.577737
v 1.475209 0.728891 -1.577737
v -1.524791 0.728891 -1.577737
v -1.524791 -0.471109 -1.577737
v -1.524791 -0.471109 1.422263
v -1.524791 0.728891 1.422263
v -1.225691 0.728891 -1.278338
v 1.175810 0.728891 -1.278338
v 1.175810 0.728891 1.123162
v -1.225691 0.728891 1.123162
v -1.225691 -0.071509 -1.278338
v 1.175810 -0.071509 -1.278338
v -1.225691 -0.071509 1.123162
v 1.175810 -0.071509 1.123162
vn 1.0000 -0.0000 -0.0000
vn -1.0000 -0.0000 -0.0000
vn -0.0000 1.0000 -0.0000
vn -0.0000 -1.0000 -0.0000
vn -0.0000 -0.0000 1.0000
vn -0.0000 -0.0000 -1.0000
vt 0.000000 0.500000
vt 1.000000 0.500000
vt 1.000000 0.000000
vt 0.000000 0.000000
vt 1.000000 1.000000
vt 0.000000 1.000000
vt 1.000000 0.500000
vt 0.000000 0.500000
vt 0.000000 0.500000
vt 1.000000 0.500000
vt 1.000000 0.000000
vt 0.000000 0.000000
vt 1.000000 1.000000
vt 0.000000 1.000000
vt 1.000000 0.500000
vt 0.000000 0.500000
vt 0.000000 0.500000
vt 0.555401 0.500000
vt 0.555401 1.000000
vt 0.000000 1.000000
vt 0.499972 0.950150
vt 0.499972 0.549900
vt 0.055374 0.549900
vt 0.055374 0.950150
vt 0.555401 0.500000
vt 0.000000 0.500000
vt 0.000000 0.000000
vt 0.555401 0.000000
vt 0.555401 0.400250
vt 0.555401 0.000000
vt 1.000000 0.400250
s 0
usemtl TreasureOutsideMat
f 1/1/1 3/1/1 2/2/1
f 3/1/1 4/2/1 2/2/1
f 5/3/2 7/3/2 6/4/2
f 7/3/2 8/4/2 6/4/2
f 5/5/3 6/6/3 2/7/3
f 6/6/3 1/8/3 2/7/3
f 8/4/4 7/3/4 3/1/4
f 7/3/4 4/2/4 3/1/4
f 6/4/5 8/4/5 1/1/5
f 8/4/5 3/1/5 1/1/5
f 2/7/6 4/7/6 5/5/6
f 4/7/6 7/5/6 5/5/6
usemtl TreasureAccentMat
f 9/9/1 11/9/1 10/10/1
f 11/9/1 12/10/1 10/10/1
f 13/11/2 15/11/2 14/12/2
f 15/11/2 16/12/2 14/12/2
f 13/13/3 14/14/3 10/15/3
f 14/14/3 9/16/3 10/15/3
f 16/12/4 15/11/4 11/9/4
f 15/11/4 12/10/4 11/9/4
f 14/12/5 16/12/5 9/9/5
f 16/12/5 11/9/5 9/9/5
f 10/15/6 12/15/6 13/13/6
f 12/15/6 15/13/6 13/13/6
usemtl TreasureMainMat
f 17/17/1 18/17/1 19/18/1
f 17/17/1 19/18/1 20/18/1
f 21/19/2 22/19/2 23/20/2
f 21/19/2 23/20/2 24/20/2
f 25/21/3 26/22/3 21/19/3
f 24/20/3 27/23/3 28/24/3
f 24/20/3 28/24/3 25/21/3
f 24/20/3 25/21/3 21/19/3
f 20/25/3 21/19/3 26/22/3
f 27/23/3 17/26/3 26/22/3
f 24/20/3 17/26/3 27/23/3
f 20/25/3 26/22/3 17/26/3
f 23/27/4 19/18/4 18/17/4
f 19/18/4 23/27/4 22/28/4
f 18/17/5 17/17/5 24/27/5
f 24/27/5 23/27/5 18/17/5
f 21/19/6 20/25/6 19/25/6
f 19/25/6 22/19/6 21/19/6
f 25/29/5 29/29/5 30/30/5
f 25/29/5 30/30/5 26/30/5
f 29/29/1 25/29/1 28/31/1
f 29/29/1 28/31/1 31/31/1
f 27/23/6 32/23/6 31/24/6
f 27/23/6 31/24/6 28/24/6
f 31/24/3 32/23/3 30/22/3
f 31/24/3 30/22/3 29/21/3
f 32/23/2 27/23/2 26/22/2
f 32/23/2 26/22/2 30/22/2
