# Blender 5.0.0
# www.blender.org
mtllib subGroundB5.mtl
o subGroundB5
v -17.500000 -0.000000 20.677807
v -17.500000 0.000000 -20.561621
v 18.759420 0.000000 -20.721458
v 8.939024 0.000000 -20.561621
v 8.939024 -0.000000 20.677807
v -17.500000 0.000000 5.020955
v 18.759420 0.000000 5.020955
v 8.939024 0.000000 5.020955
vn -0.0000 1.0000 -0.0000
vt -0.000161 0.620163
vt 0.271520 -0.000306
vt 0.270689 0.620526
vt 1.000669 0.000670
vt 0.999838 0.621502
vt 0.270181 0.999693
vt 0.999330 1.000669
vt 0.000670 -0.000669
s 0
usemtl SubGround
f 7/1/1 4/2/1 8/3/1
f 8/3/1 2/4/1 6/5/1
f 5/6/1 6/5/1 1/7/1
f 7/1/1 3/8/1 4/2/1
f 8/3/1 4/2/1 2/4/1
f 5/6/1 8/3/1 6/5/1
