# Blender 5.0.0
# www.blender.org
mtllib subGround3.mtl
o subGround3
v -25.000000 0.000000 25.000000
v 25.000000 0.000000 25.000000
v -25.000000 0.000000 -25.000000
v 25.000000 0.000000 -25.000000
v -25.000000 0.000000 14.867687
v 25.000000 0.000000 14.867687
v 16.331499 0.000000 -25.000000
v 16.331499 0.000000 25.000000
v 16.331499 0.000000 14.867687
v 33.341301 0.000000 25.000000
v 33.341301 0.000000 14.867687
v 25.000000 -0.000001 32.006966
v 16.331499 -0.000001 32.006966
v 25.000000 -0.000001 32.227833
v 33.341301 -0.000001 32.227833
v -14.824446 0.000000 14.867687
v -14.824447 0.000000 -25.000000
v -14.824447 0.000000 25.000000
v -25.000000 -0.000001 32.333527
v -14.824447 -0.000001 32.333527
v -32.166504 0.000000 25.000000
v -32.166504 0.000000 14.867687
v -25.000000 -0.000001 32.063217
v -32.166504 -0.000001 32.063217
v -25.000000 0.000000 -14.620733
v 25.000000 0.000000 -14.620733
v 16.331499 0.000000 -14.620733
v -14.824446 0.000000 -14.620733
v -32.431732 0.000000 -25.000000
v -32.431732 0.000000 -14.620733
v -25.000000 0.000001 -32.187176
v -14.824447 0.000001 -32.187176
v -32.028053 0.000000 -25.000000
v -32.028053 0.000001 -32.187176
v 25.000000 0.000000 -31.524666
v 16.331499 0.000000 -31.524666
v 33.724110 0.000000 -25.000000
v 33.724110 0.000000 -14.620733
v 25.000000 0.000001 -31.637846
v 33.724110 0.000001 -31.637846
vn -0.0000 1.0000 -0.0000
vt 0.131872 0.272261
vt 0.262904 0.111393
vt 0.262904 0.272261
vt 0.131872 0.886338
vt 0.262904 0.729299
vt 0.262904 0.886338
vt 0.733851 0.729299
vt 0.733851 0.886338
vt 0.262904 0.272261
vt 0.733851 0.111393
vt 0.733851 0.272261
vt 0.005786 0.729299
vt 0.131872 0.729299
vt 0.131872 0.994939
vt 0.005786 0.998362
vt 0.005786 0.886338
vt 0.887663 0.111393
vt 0.887663 0.272261
vt 0.887663 0.729299
vt 0.887663 0.886338
vt 0.733851 1.000000
vt 0.995991 0.886338
vt 0.887663 0.995810
vt 0.131872 0.729299
vt 1.000000 0.272261
vt 0.887663 0.000000
vt 0.993898 0.111393
vt 0.131872 0.111393
vt 0.262904 0.010268
vt 0.000000 0.111393
vt 0.131872 0.008514
vt 0.262904 0.111393
vt 0.262904 0.994939
vt 0.131872 0.998362
vt 0.887663 1.000000
vt 0.995991 0.729299
vt 0.995991 0.995810
vt 0.131872 0.272261
vt 1.000000 0.111393
vt 0.733851 0.000000
vt 0.993898 0.000000
vt 0.131872 0.010268
vt 0.000000 0.272261
vt 0.000000 0.008514
s 0
usemtl SubGround
f 26/1/1 7/2/1 27/3/1
f 2/4/1 9/5/1 8/6/1
f 8/6/1 16/7/1 18/8/1
f 27/9/1 17/10/1 28/11/1
f 2/4/1 11/12/1 6/13/1
f 8/6/1 12/14/1 2/4/1
f 2/4/1 15/15/1 10/16/1
f 28/11/1 3/17/1 25/18/1
f 18/8/1 5/19/1 1/20/1
f 1/20/1 20/21/1 18/8/1
f 5/19/1 21/22/1 1/20/1
f 21/22/1 23/23/1 1/20/1
f 16/7/1 25/18/1 5/19/1
f 9/5/1 28/11/1 16/7/1
f 6/24/1 27/9/1 9/5/1
f 3/17/1 30/25/1 25/18/1
f 17/10/1 31/26/1 3/17/1
f 31/26/1 33/27/1 3/17/1
f 4/28/1 36/29/1 7/2/1
f 26/1/1 37/30/1 4/28/1
f 37/30/1 39/31/1 4/28/1
f 26/1/1 4/28/1 7/2/1
f 2/4/1 6/13/1 9/5/1
f 8/6/1 9/5/1 16/7/1
f 27/9/1 7/32/1 17/10/1
f 2/4/1 10/16/1 11/12/1
f 8/6/1 13/33/1 12/14/1
f 2/4/1 14/34/1 15/15/1
f 28/11/1 17/10/1 3/17/1
f 18/8/1 16/7/1 5/19/1
f 1/20/1 19/35/1 20/21/1
f 5/19/1 22/36/1 21/22/1
f 21/22/1 24/37/1 23/23/1
f 16/7/1 28/11/1 25/18/1
f 9/5/1 27/9/1 28/11/1
f 6/24/1 26/38/1 27/9/1
f 3/17/1 29/39/1 30/25/1
f 17/10/1 32/40/1 31/26/1
f 31/26/1 34/41/1 33/27/1
f 4/28/1 35/42/1 36/29/1
f 26/1/1 38/43/1 37/30/1
f 37/30/1 40/44/1 39/31/1
