# Blender 5.0.0
# www.blender.org
mtllib subWorld2Cover.mtl
o subWorld2Cover
v -1.317500 -5.212501 25.000004
v -1.317500 7.036413 25.000004
v -1.317500 -5.212501 -24.999996
v -1.317500 7.036413 -24.999996
v 1.317500 -5.212501 25.000004
v 1.317500 7.036413 25.000004
v 1.317500 -5.212501 -24.999996
v 1.317500 7.036413 -24.999996
v -0.839043 -5.212502 37.211418
v -0.839043 5.212498 37.211418
v -0.839043 -5.212502 22.607063
v -0.839043 5.212498 22.607063
v 0.839043 -5.212502 37.211418
v 0.839043 5.212498 37.211418
v 0.839043 -5.212502 22.607063
v 0.839043 5.212498 22.607063
vn -1.0000 -0.0000 -0.0000
vn -0.0000 -0.0000 -1.0000
vn 1.0000 -0.0000 -0.0000
vn -0.0000 -0.0000 1.0000
vn -0.0000 -1.0000 -0.0000
vn -0.0000 1.0000 -0.0000
vt 0.625000 0.000000
vt 0.375000 0.250000
vt 0.375000 0.000000
vt 0.625000 0.250000
vt 0.375000 0.500000
vt 0.625000 0.500000
vt 0.375000 0.750000
vt 0.625000 0.750000
vt 0.375000 1.000000
vt 0.125000 0.750000
vt 0.125000 0.500000
vt 1.000000 0.000000
vt 0.000000 1.000000
vt 0.000000 0.000000
vt 0.625000 1.000000
vt 1.000000 1.000000
s 0
usemtl SubWall
f 2/1/1 3/2/1 1/3/1
f 4/4/2 7/5/2 3/2/2
f 8/6/3 5/7/3 7/5/3
f 6/8/4 1/9/4 5/7/4
f 7/5/5 1/10/5 3/11/5
f 4/12/6 6/13/6 8/14/6
f 10/1/1 11/2/1 9/3/1
f 12/4/2 15/5/2 11/2/2
f 16/6/3 13/7/3 15/5/3
f 14/8/4 9/9/4 13/7/4
f 15/5/5 9/10/5 11/11/5
f 12/12/6 14/13/6 16/14/6
f 2/1/1 4/4/1 3/2/1
f 4/4/2 8/6/2 7/5/2
f 8/6/3 6/8/3 5/7/3
f 6/8/4 2/15/4 1/9/4
f 7/5/5 5/7/5 1/10/5
f 4/12/6 2/16/6 6/13/6
f 10/1/1 12/4/1 11/2/1
f 12/4/2 16/6/2 15/5/2
f 16/6/3 14/8/3 13/7/3
f 14/8/4 10/15/4 9/9/4
f 15/5/5 13/7/5 9/10/5
f 12/12/6 10/16/6 14/13/6
