# Blender 5.0.0
# www.blender.org
mtllib subWallH.mtl
o subWallH.001
v -1.317500 -5.212500 18.810474
v -1.317500 5.212500 18.810474
v -1.317500 -5.212500 -18.810474
v -1.317500 5.212500 -18.810474
v 1.317500 -5.212500 18.810474
v 1.317500 5.212500 18.810474
v 1.317500 -5.212500 -18.810474
v 1.317500 5.212500 -18.810474
vn -1.0000 -0.0000 -0.0000
vn -0.0000 -0.0000 -1.0000
vn 1.0000 -0.0000 -0.0000
vn -0.0000 -0.0000 1.0000
vn -0.0000 -1.0000 -0.0000
vn -0.0000 1.0000 -0.0000
vt 1.001269 1.001269
vt -0.001269 -0.001269
vt 1.001269 -0.001269
vt 0.000353 0.000353
vt 0.999647 0.999647
vt 0.000353 0.999647
vt 1.003343 1.003343
vt -0.003343 -0.003343
vt 1.003343 -0.003343
vt -0.001269 1.001269
vt 0.999647 0.000353
vt -0.003343 1.003343
s 0
usemtl SubWall
f 2/1/1 3/2/1 1/3/1
f 4/1/2 7/2/2 3/3/2
f 8/1/3 5/2/3 7/3/3
f 6/1/4 1/2/4 5/3/4
f 7/4/5 1/5/5 3/6/5
f 4/7/6 6/8/6 8/9/6
f 2/1/1 4/10/1 3/2/1
f 4/1/2 8/10/2 7/2/2
f 8/1/3 6/10/3 5/2/3
f 6/1/4 2/10/4 1/2/4
f 7/4/5 5/11/5 1/5/5
f 4/7/6 2/12/6 6/8/6
